<svg width="659" height="659" viewBox="0 0 659 659" fill="none" xmlns="http://www.w3.org/2000/svg">
<path fill-rule="evenodd" clip-rule="evenodd" d="M317.246 657.817L317.351 654.818L317.457 651.82C321.291 651.955 325.143 652.023 329.011 652.023C332.879 652.023 336.731 651.955 340.565 651.82L340.671 654.818L340.776 657.817C336.871 657.954 332.949 658.023 329.011 658.023C325.073 658.023 321.151 657.954 317.246 657.817ZM364.194 656.164L363.877 653.181L363.56 650.198C371.257 649.379 378.874 648.291 386.4 646.941L386.929 649.894L387.458 652.847C379.792 654.222 372.034 655.33 364.194 656.164ZM410.403 647.878L409.663 644.971L408.923 642.063C416.409 640.158 423.79 637.992 431.056 635.574L432.004 638.421L432.951 641.268C425.548 643.73 418.029 645.937 410.403 647.878ZM454.952 633.057L453.803 630.286L452.654 627.515C459.776 624.562 466.77 621.361 473.625 617.923L474.97 620.604L476.315 623.286C469.332 626.788 462.208 630.049 454.952 633.057ZM496.919 612.012L495.386 609.433L493.852 606.854C500.471 602.919 506.938 598.753 513.241 594.369L514.954 596.832L516.667 599.294C510.247 603.76 503.661 608.003 496.919 612.012ZM535.46 585.204C541.558 580.284 547.477 575.15 553.205 569.815L551.16 567.62L549.116 565.425C543.491 570.663 537.68 575.704 531.693 580.535L533.576 582.869L535.46 585.204ZM569.814 553.206L567.619 551.161L565.424 549.116C570.662 543.492 575.703 537.681 580.534 531.693L582.869 533.577L585.203 535.461C580.283 541.559 575.15 547.478 569.814 553.206ZM599.294 516.668L596.831 514.955L594.368 513.242C598.753 506.939 602.918 500.472 606.854 493.853L609.432 495.386L612.011 496.92C608.002 503.662 603.759 510.248 599.294 516.668ZM623.285 476.315L620.604 474.97L617.922 473.625C621.36 466.771 624.561 459.777 627.514 452.655L630.285 453.804L633.057 454.953C630.048 462.209 626.787 469.333 623.285 476.315ZM641.267 432.951L638.42 432.004L635.574 431.057C637.991 423.791 640.158 416.409 642.063 408.924L644.97 409.664L647.877 410.403C645.937 418.029 643.73 425.549 641.267 432.951ZM652.846 387.459L649.893 386.93L646.94 386.4C648.29 378.875 649.378 371.258 650.197 363.561L653.18 363.878L656.163 364.195C655.33 372.035 654.221 379.793 652.846 387.459ZM657.816 340.777L654.818 340.671L651.819 340.566C651.954 336.732 652.022 332.88 652.022 329.012C652.022 325.144 651.954 321.292 651.819 317.458L654.818 317.352L657.816 317.247C657.953 321.152 658.022 325.074 658.022 329.012C658.022 332.95 657.953 336.872 657.816 340.777ZM656.163 293.829C655.33 285.989 654.221 278.23 652.846 270.564L649.893 271.094L646.94 271.623C648.29 279.149 649.378 286.765 650.197 294.463L653.18 294.146L656.163 293.829ZM647.877 247.62L644.97 248.36L642.063 249.1C640.158 241.614 637.991 234.233 635.573 226.966L638.42 226.019L641.267 225.072C643.73 232.475 645.937 239.994 647.877 247.62ZM633.057 203.07L630.285 204.22L627.514 205.369C624.561 198.247 621.36 191.253 617.922 184.398L620.604 183.053L623.285 181.708C626.787 188.691 630.048 195.815 633.057 203.07ZM612.011 161.104L609.432 162.637L606.854 164.17C602.918 157.551 598.752 151.085 594.368 144.782L596.831 143.069L599.294 141.356C603.759 147.775 608.002 154.362 612.011 161.104ZM585.203 122.563L582.869 124.446L580.534 126.33C575.703 120.343 570.662 114.532 565.424 108.907L567.619 106.862L569.814 104.818C575.15 110.546 580.283 116.465 585.203 122.563ZM553.205 88.2086L551.16 90.4039L549.116 92.5991C543.491 87.3604 537.68 82.32 531.692 77.489L533.576 75.1543L535.46 72.8195C541.558 77.7397 547.477 82.8732 553.205 88.2086ZM516.667 58.7292L514.954 61.192L513.241 63.6548C506.938 59.2703 500.471 55.1048 493.852 51.1692L495.386 48.5906L496.919 46.012C503.661 50.0207 510.247 54.2635 516.667 58.7292ZM476.314 34.7377L474.97 37.4193L473.625 40.1009C466.77 36.663 459.776 33.462 452.654 30.5086L453.803 27.7374L454.952 24.9662C462.208 27.9749 469.332 31.2357 476.314 34.7377ZM432.951 16.7562L432.003 19.6027L431.056 22.4493C423.79 20.0317 416.409 17.8653 408.923 15.9603L409.663 13.0529L410.403 10.1456C418.028 12.0863 425.548 14.2933 432.951 16.7562ZM387.458 5.17655L386.929 8.12947L386.4 11.0824C378.874 9.73314 371.257 8.64449 363.56 7.82616L363.877 4.84297L364.194 1.85978C372.034 2.69327 379.792 3.80214 387.458 5.17655ZM340.776 0.207147C336.871 0.0699112 332.949 0.000718212 329.011 0.00071804C325.073 0.000717868 321.151 0.0699114 317.246 0.207149L317.351 3.2053L317.457 6.20345C321.291 6.06868 325.143 6.00072 329.011 6.00072C332.879 6.00072 336.731 6.06868 340.565 6.20345L340.671 3.2053L340.776 0.207147ZM293.828 1.85978C285.988 2.69327 278.23 3.80215 270.564 5.17656L271.093 8.12947L271.622 11.0824C279.148 9.73315 286.764 8.64449 294.462 7.82617L294.145 4.84297L293.828 1.85978ZM247.619 10.1456L248.359 13.053L249.099 15.9603C241.613 17.8653 234.232 20.0317 226.966 22.4493L226.018 19.6028L225.071 16.7562C232.474 14.2933 239.993 12.0863 247.619 10.1456ZM203.07 24.9663L204.219 27.7374L205.368 30.5086C198.246 33.462 191.252 36.6631 184.397 40.1009L183.052 37.4193L181.707 34.7377C188.69 31.2357 195.814 27.9749 203.07 24.9663ZM161.103 46.012L162.636 48.5906L164.17 51.1692C157.551 55.1048 151.084 59.2703 144.781 63.6548L143.068 61.192L141.355 58.7292C147.775 54.2636 154.361 50.0207 161.103 46.012ZM122.562 72.8195L124.446 75.1543L126.329 77.4891C120.342 82.32 114.531 87.3604 108.906 92.5991L106.862 90.4039L104.817 88.2086C110.545 82.8732 116.464 77.7397 122.562 72.8195ZM88.2078 104.818L90.403 106.862L92.5983 108.907C87.3595 114.532 82.3192 120.343 77.4882 126.33L75.1534 124.447L72.8187 122.563C77.7389 116.465 82.8723 110.546 88.2078 104.818ZM58.7284 141.356L61.1912 143.069L63.6539 144.782C59.2695 151.085 55.1039 157.552 51.1683 164.17L48.5897 162.637L46.0111 161.104C50.0198 154.362 54.2627 147.776 58.7284 141.356ZM34.7368 181.708L37.4185 183.053L40.1001 184.398C36.6622 191.253 33.4612 198.247 30.5077 205.369L27.7366 204.22L24.9654 203.07C27.9741 195.815 31.2349 188.691 34.7368 181.708ZM16.7553 225.072L19.6019 226.019L22.4485 226.966C20.0309 234.233 17.8644 241.614 15.9594 249.1L13.0521 248.36L10.1448 247.62C12.0854 239.994 14.2924 232.475 16.7553 225.072ZM5.17572 270.564L8.1286 271.094L11.0815 271.623C9.7323 279.149 8.64367 286.765 7.82531 294.463L4.8421 294.146L1.85894 293.829C2.69244 285.989 3.80133 278.23 5.17572 270.564ZM0.206294 317.247L3.20446 317.352L6.20257 317.458C6.0678 321.292 5.99987 325.144 5.99987 329.012C5.99987 332.88 6.0678 336.732 6.20263 340.566L3.20446 340.671L0.206293 340.777C0.0690247 336.872 -0.00012792 332.95 -0.000127748 329.012C-0.000127576 325.074 0.0690865 321.152 0.206294 317.247ZM1.85894 364.195L4.84216 363.878L7.82531 363.561C8.64367 371.258 9.73229 378.875 11.0815 386.4L8.12865 386.93L5.17571 387.459C3.80132 379.793 2.69244 372.035 1.85894 364.195ZM10.1448 410.404L13.0521 409.664L15.9595 408.924C17.8644 416.41 20.0309 423.791 22.4485 431.057L19.6019 432.004L16.7554 432.951C14.2925 425.549 12.0854 418.029 10.1448 410.404ZM24.9654 454.953L27.7366 453.804L30.5078 452.655C33.4612 459.777 36.6622 466.771 40.1001 473.625L37.4184 474.97L34.7369 476.315C31.2349 469.333 27.9741 462.209 24.9654 454.953ZM46.0112 496.92L48.5898 495.386L51.1684 493.853C55.104 500.472 59.2695 506.939 63.654 513.242L61.1911 514.955L58.7284 516.668C54.2627 510.248 50.0199 503.662 46.0112 496.92ZM72.8186 535.461L75.1534 533.577L77.4882 531.693C82.3191 537.681 87.3595 543.492 92.5983 549.117L90.4031 551.161L88.2078 553.206C82.8724 547.478 77.7389 541.559 72.8186 535.461ZM104.817 569.815L106.862 567.62L108.906 565.425C114.531 570.663 120.342 575.704 126.33 580.535L124.446 582.869L122.562 585.204C116.464 580.284 110.545 575.151 104.817 569.815ZM141.355 599.294L143.068 596.832L144.781 594.369C151.084 598.753 157.551 602.919 164.17 606.854L162.636 609.433L161.103 612.012C154.361 608.003 147.775 603.76 141.355 599.294ZM181.708 623.286L183.052 620.604L184.397 617.923C191.252 621.361 198.246 624.562 205.368 627.515L204.219 630.286L203.07 633.057C195.814 630.049 188.69 626.788 181.708 623.286ZM225.071 641.268L226.018 638.421L226.966 635.574C234.232 637.992 241.613 640.158 249.099 642.063L248.359 644.971L247.619 647.878C239.993 645.937 232.474 643.73 225.071 641.268ZM270.564 652.847L271.093 649.894L271.622 646.941C279.148 648.291 286.765 649.379 294.462 650.198L294.145 653.181L293.828 656.164C285.988 655.33 278.23 654.222 270.564 652.847ZM48.6472 331.338C50.0699 484.257 173.765 607.953 326.685 609.376L326.685 464.935C253.63 463.315 194.707 404.393 193.088 331.338L48.6472 331.338ZM48.6542 325.338L193.084 325.338C194.613 252.201 253.571 193.185 326.685 191.565L326.685 47.9672C173.988 49.3882 50.4303 172.726 48.6542 325.338ZM199.09 331.338C200.707 401.079 256.944 457.316 326.685 458.933L326.685 331.338L199.09 331.338ZM326.685 325.338L199.086 325.338C200.612 255.515 256.885 199.185 326.685 197.566L326.685 325.338ZM332.685 331.338L332.685 458.937C402.508 457.411 458.838 401.138 460.456 331.338L332.685 331.338ZM460.46 325.338L332.685 325.338L332.685 197.562C402.566 199.09 458.933 255.456 460.46 325.338ZM466.462 325.338C464.932 252.142 405.88 193.09 332.685 191.561L332.685 47.9742C485.075 49.7474 608.275 172.948 610.049 325.338L466.462 325.338ZM466.458 331.338L610.056 331.338C608.635 484.035 485.297 607.593 332.685 609.369L332.685 464.938C405.822 463.41 464.838 404.451 466.458 331.338ZM42.6348 328.672C42.6348 487.021 171.002 615.388 329.351 615.388C487.701 615.388 616.068 487.021 616.068 328.672C616.068 170.322 487.701 41.9548 329.352 41.9548C171.002 41.9548 42.6348 170.322 42.6348 328.672Z" fill="#222222"/>
</svg>
