<svg width="36" height="40" viewBox="0 0 36 40" fill="none" xmlns="http://www.w3.org/2000/svg">
<path fill-rule="evenodd" clip-rule="evenodd" d="M16.8307 0.0559564C15.9692 0.199311 15.115 0.485099 14.4185 0.863072C13.6166 1.29821 3.7093 7.15726 3.31167 7.43156C2.71981 7.8398 1.77099 8.82525 1.35381 9.46502C0.696609 10.4729 0.369817 11.2941 0.094269 12.6303C0.0316466 12.9341 0.0207655 13.7897 0.00518896 19.6434C-0.00727232 24.3486 0.00234453 26.4599 0.0380127 26.8181C0.170165 28.1462 0.591862 29.3386 1.33534 30.4862C1.76584 31.1507 2.69962 32.1244 3.31167 32.547C3.83902 32.9111 13.8551 38.8646 14.5194 39.2088C15.1064 39.513 15.8044 39.7605 16.4573 39.8959C17.1268 40.0346 18.888 40.0347 19.5584 39.896C20.1175 39.7803 20.8316 39.5412 21.3219 39.3055C21.7451 39.102 31.927 33.098 32.5009 32.7135C34.3202 31.4946 35.524 29.6071 35.9226 27.3487C35.9933 26.9476 35.9999 26.3243 35.9999 20.0126C35.9999 12.6108 36.0101 12.9607 35.7666 11.9617C35.5524 11.0828 35.2053 10.2982 34.6619 9.46502C34.2451 8.82576 33.2962 7.84008 32.704 7.43129C32.1817 7.07066 21.806 0.952536 21.3219 0.719717C20.8476 0.491604 20.1329 0.249557 19.5655 0.124842C18.9778 -0.00434771 17.4277 -0.0433816 16.8307 0.0559564ZM18.8004 3.19371C19.2837 3.27381 19.8085 3.44591 20.2337 3.66382C20.5833 3.84294 30.4051 9.64759 30.7852 9.8997C31.1246 10.1248 31.9008 10.9266 32.1333 11.2922C32.4858 11.8465 32.7185 12.4188 32.8932 13.1609C32.962 13.4532 32.9708 14.0579 32.9859 19.5281C33.0037 25.9369 32.9908 26.4737 32.802 27.1642C32.4926 28.2965 31.86 29.2641 30.9847 29.9435C30.6054 30.2379 20.4688 36.2311 19.9944 36.4414C19.2848 36.756 18.905 36.8304 18.0078 36.8304C17.1108 36.8304 16.7312 36.756 16.0213 36.4415C15.5507 36.233 5.40516 30.2337 5.02735 29.9406C4.37797 29.4367 3.78687 28.6655 3.46477 27.9021C3.23 27.3456 3.10985 26.8335 3.0578 26.1677C3.03116 25.8272 3.02028 23.2199 3.03016 19.545C3.04493 14.0577 3.05369 13.4533 3.12249 13.1609C3.29722 12.4187 3.52992 11.8465 3.88236 11.2922C4.1147 10.9269 4.89078 10.1251 5.23053 9.89947C5.59326 9.65853 15.4492 3.83482 15.7955 3.65676C16.6874 3.19828 17.7968 3.02733 18.8004 3.19371ZM17.3153 6.53904C16.9642 6.60415 16.4746 6.76831 16.1809 6.91946C15.8184 7.106 8.1219 11.6275 7.80405 11.8406C7.21331 12.2368 6.60948 12.9967 6.31926 13.7091C6.00267 14.4862 6.02064 14.1109 6.02064 19.9434V25.2032L6.12255 25.594C6.33899 26.4238 6.88214 27.2927 7.50349 27.8031C7.78766 28.0365 15.2594 32.4689 16.1116 32.9096C16.8745 33.3042 17.6559 33.4521 18.4643 33.3552C18.9753 33.2939 19.6171 33.0921 19.9935 32.8743C20.8766 32.3632 27.8249 28.281 28.0085 28.1654C28.9283 27.5861 29.6132 26.6515 29.8917 25.5954L29.9951 25.2032V14.6835L29.8932 14.2913C29.7825 13.865 29.5157 13.2577 29.2956 12.9306C29.0936 12.6306 28.6838 12.1905 28.3951 11.9635C28.131 11.7558 20.6179 7.32198 19.9392 6.97326C19.3053 6.64752 18.8605 6.53402 18.1433 6.51482C17.8081 6.50582 17.4354 6.51676 17.3153 6.53904ZM22.4777 24.5804H13.538V15.3986H22.4777V24.5804Z" fill="url(#paint0_linear_464_183)"/>
<path fill-rule="evenodd" clip-rule="evenodd" d="M16.8307 0.0559564C15.9692 0.199311 15.115 0.485099 14.4185 0.863072C13.6166 1.29821 3.7093 7.15726 3.31167 7.43156C2.71981 7.8398 1.77099 8.82525 1.35381 9.46502C0.696609 10.4729 0.369817 11.2941 0.094269 12.6303C0.0316466 12.9341 0.0207655 13.7897 0.00518896 19.6434C-0.00727232 24.3486 0.00234453 26.4599 0.0380127 26.8181C0.170165 28.1462 0.591862 29.3386 1.33534 30.4862C1.76584 31.1507 2.69962 32.1244 3.31167 32.547C3.83902 32.9111 13.8551 38.8646 14.5194 39.2088C15.1064 39.513 15.8044 39.7605 16.4573 39.8959C17.1268 40.0346 18.888 40.0347 19.5584 39.896C20.1175 39.7803 20.8316 39.5412 21.3219 39.3055C21.7451 39.102 31.927 33.098 32.5009 32.7135C34.3202 31.4946 35.524 29.6071 35.9226 27.3487C35.9933 26.9476 35.9999 26.3243 35.9999 20.0126C35.9999 12.6108 36.0101 12.9607 35.7666 11.9617C35.5524 11.0828 35.2053 10.2982 34.6619 9.46502C34.2451 8.82576 33.2962 7.84008 32.704 7.43129C32.1817 7.07066 21.806 0.952536 21.3219 0.719717C20.8476 0.491604 20.1329 0.249557 19.5655 0.124842C18.9778 -0.00434771 17.4277 -0.0433816 16.8307 0.0559564ZM18.8004 3.19371C19.2837 3.27381 19.8085 3.44591 20.2337 3.66382C20.5833 3.84294 30.4051 9.64759 30.7852 9.8997C31.1246 10.1248 31.9008 10.9266 32.1333 11.2922C32.4858 11.8465 32.7185 12.4188 32.8932 13.1609C32.962 13.4532 32.9708 14.0579 32.9859 19.5281C33.0037 25.9369 32.9908 26.4737 32.802 27.1642C32.4926 28.2965 31.86 29.2641 30.9847 29.9435C30.6054 30.2379 20.4688 36.2311 19.9944 36.4414C19.2848 36.756 18.905 36.8304 18.0078 36.8304C17.1108 36.8304 16.7312 36.756 16.0213 36.4415C15.5507 36.233 5.40516 30.2337 5.02735 29.9406C4.37797 29.4367 3.78687 28.6655 3.46477 27.9021C3.23 27.3456 3.10985 26.8335 3.0578 26.1677C3.03116 25.8272 3.02028 23.2199 3.03016 19.545C3.04493 14.0577 3.05369 13.4533 3.12249 13.1609C3.29722 12.4187 3.52992 11.8465 3.88236 11.2922C4.1147 10.9269 4.89078 10.1251 5.23053 9.89947C5.59326 9.65853 15.4492 3.83482 15.7955 3.65676C16.6874 3.19828 17.7968 3.02733 18.8004 3.19371ZM17.3153 6.53904C16.9642 6.60415 16.4746 6.76831 16.1809 6.91946C15.8184 7.106 8.1219 11.6275 7.80405 11.8406C7.21331 12.2368 6.60948 12.9967 6.31926 13.7091C6.00267 14.4862 6.02064 14.1109 6.02064 19.9434V25.2032L6.12255 25.594C6.33899 26.4238 6.88214 27.2927 7.50349 27.8031C7.78766 28.0365 15.2594 32.4689 16.1116 32.9096C16.8745 33.3042 17.6559 33.4521 18.4643 33.3552C18.9753 33.2939 19.6171 33.0921 19.9935 32.8743C20.8766 32.3632 27.8249 28.281 28.0085 28.1654C28.9283 27.5861 29.6132 26.6515 29.8917 25.5954L29.9951 25.2032V14.6835L29.8932 14.2913C29.7825 13.865 29.5157 13.2577 29.2956 12.9306C29.0936 12.6306 28.6838 12.1905 28.3951 11.9635C28.131 11.7558 20.6179 7.32198 19.9392 6.97326C19.3053 6.64752 18.8605 6.53402 18.1433 6.51482C17.8081 6.50582 17.4354 6.51676 17.3153 6.53904ZM22.4777 24.5804H13.538V15.3986H22.4777V24.5804Z" fill="url(#paint1_linear_464_183)"/>
<path fill-rule="evenodd" clip-rule="evenodd" d="M16.8307 0.0559564C15.9692 0.199311 15.115 0.485099 14.4185 0.863072C13.6166 1.29821 3.7093 7.15726 3.31167 7.43156C2.71981 7.8398 1.77099 8.82525 1.35381 9.46502C0.696609 10.4729 0.369817 11.2941 0.094269 12.6303C0.0316466 12.9341 0.0207655 13.7897 0.00518896 19.6434C-0.00727232 24.3486 0.00234453 26.4599 0.0380127 26.8181C0.170165 28.1462 0.591862 29.3386 1.33534 30.4862C1.76584 31.1507 2.69962 32.1244 3.31167 32.547C3.83902 32.9111 13.8551 38.8646 14.5194 39.2088C15.1064 39.513 15.8044 39.7605 16.4573 39.8959C17.1268 40.0346 18.888 40.0347 19.5584 39.896C20.1175 39.7803 20.8316 39.5412 21.3219 39.3055C21.7451 39.102 31.927 33.098 32.5009 32.7135C34.3202 31.4946 35.524 29.6071 35.9226 27.3487C35.9933 26.9476 35.9999 26.3243 35.9999 20.0126C35.9999 12.6108 36.0101 12.9607 35.7666 11.9617C35.5524 11.0828 35.2053 10.2982 34.6619 9.46502C34.2451 8.82576 33.2962 7.84008 32.704 7.43129C32.1817 7.07066 21.806 0.952536 21.3219 0.719717C20.8476 0.491604 20.1329 0.249557 19.5655 0.124842C18.9778 -0.00434771 17.4277 -0.0433816 16.8307 0.0559564ZM18.8004 3.19371C19.2837 3.27381 19.8085 3.44591 20.2337 3.66382C20.5833 3.84294 30.4051 9.64759 30.7852 9.8997C31.1246 10.1248 31.9008 10.9266 32.1333 11.2922C32.4858 11.8465 32.7185 12.4188 32.8932 13.1609C32.962 13.4532 32.9708 14.0579 32.9859 19.5281C33.0037 25.9369 32.9908 26.4737 32.802 27.1642C32.4926 28.2965 31.86 29.2641 30.9847 29.9435C30.6054 30.2379 20.4688 36.2311 19.9944 36.4414C19.2848 36.756 18.905 36.8304 18.0078 36.8304C17.1108 36.8304 16.7312 36.756 16.0213 36.4415C15.5507 36.233 5.40516 30.2337 5.02735 29.9406C4.37797 29.4367 3.78687 28.6655 3.46477 27.9021C3.23 27.3456 3.10985 26.8335 3.0578 26.1677C3.03116 25.8272 3.02028 23.2199 3.03016 19.545C3.04493 14.0577 3.05369 13.4533 3.12249 13.1609C3.29722 12.4187 3.52992 11.8465 3.88236 11.2922C4.1147 10.9269 4.89078 10.1251 5.23053 9.89947C5.59326 9.65853 15.4492 3.83482 15.7955 3.65676C16.6874 3.19828 17.7968 3.02733 18.8004 3.19371ZM17.3153 6.53904C16.9642 6.60415 16.4746 6.76831 16.1809 6.91946C15.8184 7.106 8.1219 11.6275 7.80405 11.8406C7.21331 12.2368 6.60948 12.9967 6.31926 13.7091C6.00267 14.4862 6.02064 14.1109 6.02064 19.9434V25.2032L6.12255 25.594C6.33899 26.4238 6.88214 27.2927 7.50349 27.8031C7.78766 28.0365 15.2594 32.4689 16.1116 32.9096C16.8745 33.3042 17.6559 33.4521 18.4643 33.3552C18.9753 33.2939 19.6171 33.0921 19.9935 32.8743C20.8766 32.3632 27.8249 28.281 28.0085 28.1654C28.9283 27.5861 29.6132 26.6515 29.8917 25.5954L29.9951 25.2032V14.6835L29.8932 14.2913C29.7825 13.865 29.5157 13.2577 29.2956 12.9306C29.0936 12.6306 28.6838 12.1905 28.3951 11.9635C28.131 11.7558 20.6179 7.32198 19.9392 6.97326C19.3053 6.64752 18.8605 6.53402 18.1433 6.51482C17.8081 6.50582 17.4354 6.51676 17.3153 6.53904ZM22.4777 24.5804H13.538V15.3986H22.4777V24.5804Z" fill="url(#paint2_linear_464_183)"/>
<defs>
<linearGradient id="paint0_linear_464_183" x1="18" y1="0" x2="18" y2="40" gradientUnits="userSpaceOnUse">
<stop stop-color="white"/>
<stop offset="1" stop-color="#7E7E7E"/>
</linearGradient>
<linearGradient id="paint1_linear_464_183" x1="18" y1="0" x2="18" y2="40" gradientUnits="userSpaceOnUse">
<stop stop-color="white"/>
<stop offset="1" stop-color="#7E7E7E"/>
</linearGradient>
<linearGradient id="paint2_linear_464_183" x1="18" y1="0" x2="18" y2="40" gradientUnits="userSpaceOnUse">
<stop stop-color="white"/>
<stop offset="1" stop-color="#7E7E7E"/>
</linearGradient>
</defs>
</svg>
