<svg width="1579" height="996" viewBox="0 0 1579 996" fill="none" xmlns="http://www.w3.org/2000/svg">
<rect x="1506.97" y="58.0859" width="39" height="39" rx="3" transform="rotate(-3.10786 1506.97 58.0859)" stroke="#4338CA" stroke-width="3"/>
<rect x="1094.63" y="484.156" width="39" height="39" rx="3" transform="rotate(17.1033 1094.63 484.156)" stroke="#4338CA" stroke-width="3"/>
<rect x="180.38" y="20.2435" width="39" height="39" rx="3" transform="rotate(16.5923 180.38 20.2435)" stroke="#4338CA" stroke-width="3"/>
<rect x="1091.68" y="97.52" width="38" height="39" rx="3" transform="rotate(-30.889 1091.68 97.52)" stroke="#222222" stroke-width="3"/>
<rect x="1343" y="431.181" width="38" height="39" rx="3" transform="rotate(-18.6968 1343 431.181)" stroke="#222222" stroke-width="3"/>
<rect x="1184.96" y="778.747" width="38" height="39" rx="3" transform="rotate(7.50334 1184.96 778.747)" stroke="#222222" stroke-width="3"/>
<rect x="131.093" y="825" width="38" height="39" rx="3" transform="rotate(7.50334 131.093 825)" stroke="#222222" stroke-width="3"/>
<rect x="464.079" y="474.863" width="38" height="39" rx="3" transform="rotate(-7.23609 464.079 474.863)" stroke="#222222" stroke-width="3"/>
<path d="M1218.7 142.226L1244.54 173.491L1204.07 180.057L1218.7 142.226Z" stroke="#4338CA" stroke-width="3"/>
<path d="M563.564 918.416L576.592 956.828L536.432 948.568L563.564 918.416Z" stroke="#4338CA" stroke-width="3"/>
<path d="M67.1311 740.13L80.1593 778.543L40 770.282L67.1311 740.13Z" stroke="#4338CA" stroke-width="3"/>
<path d="M622.108 79.2407L647.617 110.454L608.167 117.065L622.108 79.2407Z" stroke="#222222" stroke-width="3"/>
<path d="M106.725 180.306L132.235 211.519L92.7848 218.13L106.725 180.306Z" stroke="#222222" stroke-width="3"/>
<path d="M1504.72 884.306L1530.23 915.519L1490.78 922.13L1504.72 884.306Z" stroke="#222222" stroke-width="3"/>
<path d="M1404.72 186.306L1430.23 217.519L1390.78 224.13L1404.72 186.306Z" stroke="#222222" stroke-width="3"/>
<ellipse cx="527.5" cy="206" rx="23.5" ry="23" stroke="#4338CA" stroke-width="3"/>
<ellipse cx="1378.5" cy="825" rx="23.5" ry="23" stroke="#4338CA" stroke-width="3"/>
<ellipse cx="1553.5" cy="404" rx="23.5" ry="23" stroke="#4338CA" stroke-width="3"/>
<circle cx="1008" cy="267" r="12" fill="#4338CA"/>
<circle cx="1355" cy="24" r="12" fill="#4338CA"/>
<circle cx="312" cy="243" r="12" fill="#4338CA"/>
<ellipse cx="11.5" cy="291" rx="11.5" ry="12" fill="#222222"/>
<ellipse cx="56.5" cy="12" rx="11.5" ry="12" fill="#222222"/>
<ellipse cx="1378.5" cy="960" rx="11.5" ry="12" fill="#222222"/>
<ellipse cx="852.5" cy="984" rx="11.5" ry="12" fill="#222222"/>
<ellipse cx="1343.5" cy="587" rx="11.5" ry="12" fill="#222222"/>
<ellipse cx="426.5" cy="925" rx="23.5" ry="23" stroke="#222222" stroke-width="3"/>
<ellipse cx="1180.5" cy="346" rx="23.5" ry="23" stroke="#222222" stroke-width="3"/>
<ellipse cx="890.5" cy="53" rx="23.5" ry="23" stroke="#222222" stroke-width="3"/>
</svg>
