<svg width="252" height="18" viewBox="0 0 252 18" fill="none" xmlns="http://www.w3.org/2000/svg">
<path fill-rule="evenodd" clip-rule="evenodd" d="M20.9365 1.87572C25.2042 -0.530118 30.419 -0.530121 34.6866 1.87572L45.4836 7.96232C49.7513 10.3682 54.9661 10.3682 59.2337 7.96233L70.0307 1.87572C74.2984 -0.530118 79.5132 -0.530122 83.7809 1.87572L94.5778 7.96232C98.8455 10.3682 104.06 10.3682 108.328 7.96233L119.125 1.87572C123.393 -0.530117 128.607 -0.530114 132.875 1.87572L143.672 7.96232C147.94 10.3682 153.155 10.3682 157.422 7.96231L168.219 1.87572C172.487 -0.530118 177.702 -0.530121 181.969 1.87572L192.766 7.96232C197.034 10.3682 202.249 10.3682 206.516 7.96233L217.313 1.87572C221.581 -0.530119 226.796 -0.530117 231.064 1.87572L250.685 12.9371C252.131 13.7522 252.43 15.3003 251.354 16.3949C250.277 17.4895 248.232 17.716 246.786 16.9009L231.064 8.03768C226.796 5.63184 221.581 5.63184 217.313 8.03767L206.516 14.1243C202.249 16.5301 197.034 16.5301 192.766 14.1243L181.969 8.03768C177.702 5.63185 172.487 5.63184 168.219 8.03768L157.422 14.1243C153.155 16.5301 147.94 16.5301 143.672 14.1243L132.875 8.03768C128.607 5.63184 123.393 5.63184 119.125 8.03768L108.328 14.1243C104.06 16.5301 98.8455 16.5301 94.5778 14.1243L83.7809 8.03768C79.5132 5.63184 74.2984 5.63184 70.0307 8.03768L59.2338 14.1243C54.9661 16.5301 49.7513 16.5301 45.4836 14.1243L34.6866 8.03768C30.419 5.63184 25.2042 5.63184 20.9365 8.03768L5.21407 16.9009C3.76815 17.716 1.72313 17.4895 0.64638 16.3949C-0.430366 15.3003 -0.131095 13.7522 1.31482 12.9371L20.9365 1.87572Z" fill="#5800C5"/>
</svg>
